<mxfile host="65bd71144e">
    <diagram name="Page-1" id="DlA_o81PhtzBPM63wzH7">
        <mxGraphModel dx="1754" dy="1269" grid="1" gridSize="10" guides="1" tooltips="1" connect="1" arrows="1" fold="1" page="0" pageScale="1" pageWidth="1169" pageHeight="827" math="0" shadow="0">
            <root>
                <mxCell id="0"/>
                <mxCell id="1" parent="0"/>
                <mxCell id="KGbFr2W1UHOio2lkcihP-109" style="edgeStyle=orthogonalEdgeStyle;rounded=0;orthogonalLoop=1;jettySize=auto;html=1;entryX=0;entryY=0.5;entryDx=0;entryDy=0;" parent="1" source="KGbFr2W1UHOio2lkcihP-46" target="KGbFr2W1UHOio2lkcihP-95" edge="1">
                    <mxGeometry relative="1" as="geometry"/>
                </mxCell>
                <mxCell id="KGbFr2W1UHOio2lkcihP-46" value="Tasks&lt;br&gt;" style="swimlane;whiteSpace=wrap;html=1;" parent="1" vertex="1">
                    <mxGeometry x="440" y="10" width="1070" height="700" as="geometry">
                        <mxRectangle x="460" y="20" width="140" height="30" as="alternateBounds"/>
                    </mxGeometry>
                </mxCell>
                <mxCell id="KGbFr2W1UHOio2lkcihP-26" value="Task(pydantic.BaseModel)" style="swimlane;fontStyle=0;childLayout=stackLayout;horizontal=1;startSize=30;horizontalStack=0;resizeParent=1;resizeParentMax=0;resizeLast=0;collapsible=1;marginBottom=0;whiteSpace=wrap;html=1;fillColor=#1ba1e2;fontColor=#ffffff;strokeColor=#006EAF;" parent="KGbFr2W1UHOio2lkcihP-46" vertex="1">
                    <mxGeometry x="390" y="100" width="270" height="180" as="geometry"/>
                </mxCell>
                <mxCell id="KGbFr2W1UHOio2lkcihP-30" value="abstract task class" style="rounded=0;whiteSpace=wrap;html=1;" parent="KGbFr2W1UHOio2lkcihP-26" vertex="1">
                    <mxGeometry y="30" width="270" height="60" as="geometry"/>
                </mxCell>
                <mxCell id="KGbFr2W1UHOio2lkcihP-27" value="name: str" style="text;strokeColor=none;fillColor=none;align=left;verticalAlign=middle;spacingLeft=4;spacingRight=4;overflow=hidden;points=[[0,0.5],[1,0.5]];portConstraint=eastwest;rotatable=0;whiteSpace=wrap;html=1;" parent="KGbFr2W1UHOio2lkcihP-26" vertex="1">
                    <mxGeometry y="90" width="270" height="30" as="geometry"/>
                </mxCell>
                <mxCell id="KGbFr2W1UHOio2lkcihP-28" value="description: str" style="text;strokeColor=none;fillColor=none;align=left;verticalAlign=middle;spacingLeft=4;spacingRight=4;overflow=hidden;points=[[0,0.5],[1,0.5]];portConstraint=eastwest;rotatable=0;whiteSpace=wrap;html=1;" parent="KGbFr2W1UHOio2lkcihP-26" vertex="1">
                    <mxGeometry y="120" width="270" height="30" as="geometry"/>
                </mxCell>
                <mxCell id="KGbFr2W1UHOio2lkcihP-31" value="members: list[str]" style="text;strokeColor=none;fillColor=none;align=left;verticalAlign=middle;spacingLeft=4;spacingRight=4;overflow=hidden;points=[[0,0.5],[1,0.5]];portConstraint=eastwest;rotatable=0;whiteSpace=wrap;html=1;" parent="KGbFr2W1UHOio2lkcihP-26" vertex="1">
                    <mxGeometry y="150" width="270" height="30" as="geometry"/>
                </mxCell>
                <mxCell id="KGbFr2W1UHOio2lkcihP-32" value="Discreet_Task(Task)" style="swimlane;fontStyle=0;childLayout=stackLayout;horizontal=1;startSize=30;horizontalStack=0;resizeParent=1;resizeParentMax=0;resizeLast=0;collapsible=1;marginBottom=0;whiteSpace=wrap;html=1;fillColor=#60a917;strokeColor=#2D7600;fontColor=#ffffff;" parent="KGbFr2W1UHOio2lkcihP-46" vertex="1">
                    <mxGeometry x="170" y="360" width="270" height="210" as="geometry"/>
                </mxCell>
                <mxCell id="KGbFr2W1UHOio2lkcihP-33" value="task that is either finished or not, no in between" style="rounded=0;whiteSpace=wrap;html=1;" parent="KGbFr2W1UHOio2lkcihP-32" vertex="1">
                    <mxGeometry y="30" width="270" height="60" as="geometry"/>
                </mxCell>
                <mxCell id="KGbFr2W1UHOio2lkcihP-34" value="name: str" style="text;strokeColor=none;fillColor=none;align=left;verticalAlign=middle;spacingLeft=4;spacingRight=4;overflow=hidden;points=[[0,0.5],[1,0.5]];portConstraint=eastwest;rotatable=0;whiteSpace=wrap;html=1;" parent="KGbFr2W1UHOio2lkcihP-32" vertex="1">
                    <mxGeometry y="90" width="270" height="30" as="geometry"/>
                </mxCell>
                <mxCell id="KGbFr2W1UHOio2lkcihP-35" value="description: str" style="text;strokeColor=none;fillColor=none;align=left;verticalAlign=middle;spacingLeft=4;spacingRight=4;overflow=hidden;points=[[0,0.5],[1,0.5]];portConstraint=eastwest;rotatable=0;whiteSpace=wrap;html=1;" parent="KGbFr2W1UHOio2lkcihP-32" vertex="1">
                    <mxGeometry y="120" width="270" height="30" as="geometry"/>
                </mxCell>
                <mxCell id="KGbFr2W1UHOio2lkcihP-36" value="members: list[str]" style="text;strokeColor=none;fillColor=none;align=left;verticalAlign=middle;spacingLeft=4;spacingRight=4;overflow=hidden;points=[[0,0.5],[1,0.5]];portConstraint=eastwest;rotatable=0;whiteSpace=wrap;html=1;" parent="KGbFr2W1UHOio2lkcihP-32" vertex="1">
                    <mxGeometry y="150" width="270" height="30" as="geometry"/>
                </mxCell>
                <mxCell id="KGbFr2W1UHOio2lkcihP-37" value="completed: bool" style="text;strokeColor=none;fillColor=none;align=left;verticalAlign=middle;spacingLeft=4;spacingRight=4;overflow=hidden;points=[[0,0.5],[1,0.5]];portConstraint=eastwest;rotatable=0;whiteSpace=wrap;html=1;" parent="KGbFr2W1UHOio2lkcihP-32" vertex="1">
                    <mxGeometry y="180" width="270" height="30" as="geometry"/>
                </mxCell>
                <mxCell id="KGbFr2W1UHOio2lkcihP-45" style="edgeStyle=orthogonalEdgeStyle;rounded=0;orthogonalLoop=1;jettySize=auto;html=1;" parent="KGbFr2W1UHOio2lkcihP-46" source="KGbFr2W1UHOio2lkcihP-38" edge="1">
                    <mxGeometry relative="1" as="geometry">
                        <mxPoint x="540" y="290" as="targetPoint"/>
                        <Array as="points">
                            <mxPoint x="775" y="320"/>
                            <mxPoint x="540" y="320"/>
                        </Array>
                    </mxGeometry>
                </mxCell>
                <mxCell id="KGbFr2W1UHOio2lkcihP-38" value="Milestone_Task(Task)" style="swimlane;fontStyle=0;childLayout=stackLayout;horizontal=1;startSize=30;horizontalStack=0;resizeParent=1;resizeParentMax=0;resizeLast=0;collapsible=1;marginBottom=0;whiteSpace=wrap;html=1;fillColor=#60a917;strokeColor=#2D7600;fontColor=#ffffff;" parent="KGbFr2W1UHOio2lkcihP-46" vertex="1">
                    <mxGeometry x="640" y="370" width="270" height="210" as="geometry"/>
                </mxCell>
                <mxCell id="KGbFr2W1UHOio2lkcihP-39" value="a milestone based task, varying completion" style="rounded=0;whiteSpace=wrap;html=1;" parent="KGbFr2W1UHOio2lkcihP-38" vertex="1">
                    <mxGeometry y="30" width="270" height="60" as="geometry"/>
                </mxCell>
                <mxCell id="KGbFr2W1UHOio2lkcihP-40" value="name: str" style="text;strokeColor=none;fillColor=none;align=left;verticalAlign=middle;spacingLeft=4;spacingRight=4;overflow=hidden;points=[[0,0.5],[1,0.5]];portConstraint=eastwest;rotatable=0;whiteSpace=wrap;html=1;" parent="KGbFr2W1UHOio2lkcihP-38" vertex="1">
                    <mxGeometry y="90" width="270" height="30" as="geometry"/>
                </mxCell>
                <mxCell id="KGbFr2W1UHOio2lkcihP-41" value="description: str" style="text;strokeColor=none;fillColor=none;align=left;verticalAlign=middle;spacingLeft=4;spacingRight=4;overflow=hidden;points=[[0,0.5],[1,0.5]];portConstraint=eastwest;rotatable=0;whiteSpace=wrap;html=1;" parent="KGbFr2W1UHOio2lkcihP-38" vertex="1">
                    <mxGeometry y="120" width="270" height="30" as="geometry"/>
                </mxCell>
                <mxCell id="KGbFr2W1UHOio2lkcihP-42" value="members: list[str]" style="text;strokeColor=none;fillColor=none;align=left;verticalAlign=middle;spacingLeft=4;spacingRight=4;overflow=hidden;points=[[0,0.5],[1,0.5]];portConstraint=eastwest;rotatable=0;whiteSpace=wrap;html=1;" parent="KGbFr2W1UHOio2lkcihP-38" vertex="1">
                    <mxGeometry y="150" width="270" height="30" as="geometry"/>
                </mxCell>
                <mxCell id="KGbFr2W1UHOio2lkcihP-43" value="steps: int" style="text;strokeColor=none;fillColor=none;align=left;verticalAlign=middle;spacingLeft=4;spacingRight=4;overflow=hidden;points=[[0,0.5],[1,0.5]];portConstraint=eastwest;rotatable=0;whiteSpace=wrap;html=1;" parent="KGbFr2W1UHOio2lkcihP-38" vertex="1">
                    <mxGeometry y="180" width="270" height="30" as="geometry"/>
                </mxCell>
                <mxCell id="KGbFr2W1UHOio2lkcihP-44" style="edgeStyle=orthogonalEdgeStyle;rounded=0;orthogonalLoop=1;jettySize=auto;html=1;entryX=0.505;entryY=0.978;entryDx=0;entryDy=0;entryPerimeter=0;" parent="KGbFr2W1UHOio2lkcihP-46" source="KGbFr2W1UHOio2lkcihP-32" target="KGbFr2W1UHOio2lkcihP-31" edge="1">
                    <mxGeometry relative="1" as="geometry"/>
                </mxCell>
                <mxCell id="KGbFr2W1UHOio2lkcihP-47" value="the task classes are meant to store task information in the project class, and not to be stored in the database directly" style="rounded=0;whiteSpace=wrap;html=1;" parent="KGbFr2W1UHOio2lkcihP-46" vertex="1">
                    <mxGeometry y="23" width="272" height="103" as="geometry"/>
                </mxCell>
                <mxCell id="KGbFr2W1UHOio2lkcihP-9" value="User(pydantic.BaseModel)" style="swimlane;fontStyle=0;childLayout=stackLayout;horizontal=1;startSize=30;horizontalStack=0;resizeParent=1;resizeParentMax=0;resizeLast=0;collapsible=1;marginBottom=0;whiteSpace=wrap;html=1;fillColor=#60a917;fontColor=#ffffff;strokeColor=#2D7600;" parent="1" vertex="1">
                    <mxGeometry x="60" y="80" width="210" height="210" as="geometry"/>
                </mxCell>
                <mxCell id="KGbFr2W1UHOio2lkcihP-20" value="class returned by the API, contains user info" style="rounded=0;whiteSpace=wrap;html=1;" parent="KGbFr2W1UHOio2lkcihP-9" vertex="1">
                    <mxGeometry y="30" width="210" height="60" as="geometry"/>
                </mxCell>
                <mxCell id="KGbFr2W1UHOio2lkcihP-14" value="id: str&lt;span style=&quot;white-space: pre;&quot;&gt;&#9;&lt;/span&gt;[unique]" style="text;strokeColor=none;fillColor=none;align=left;verticalAlign=middle;spacingLeft=4;spacingRight=4;overflow=hidden;points=[[0,0.5],[1,0.5]];portConstraint=eastwest;rotatable=0;whiteSpace=wrap;html=1;" parent="KGbFr2W1UHOio2lkcihP-9" vertex="1">
                    <mxGeometry y="90" width="210" height="30" as="geometry"/>
                </mxCell>
                <mxCell id="KGbFr2W1UHOio2lkcihP-10" value="username: str&lt;span style=&quot;white-space: pre;&quot;&gt;&#9;&lt;/span&gt;[unique]" style="text;strokeColor=none;fillColor=none;align=left;verticalAlign=middle;spacingLeft=4;spacingRight=4;overflow=hidden;points=[[0,0.5],[1,0.5]];portConstraint=eastwest;rotatable=0;whiteSpace=wrap;html=1;" parent="KGbFr2W1UHOio2lkcihP-9" vertex="1">
                    <mxGeometry y="120" width="210" height="30" as="geometry"/>
                </mxCell>
                <mxCell id="KGbFr2W1UHOio2lkcihP-11" value="full_name: str" style="text;strokeColor=none;fillColor=none;align=left;verticalAlign=middle;spacingLeft=4;spacingRight=4;overflow=hidden;points=[[0,0.5],[1,0.5]];portConstraint=eastwest;rotatable=0;whiteSpace=wrap;html=1;" parent="KGbFr2W1UHOio2lkcihP-9" vertex="1">
                    <mxGeometry y="150" width="210" height="30" as="geometry"/>
                </mxCell>
                <mxCell id="KGbFr2W1UHOio2lkcihP-12" value="profile_picture: str | None&lt;span style=&quot;white-space: pre;&quot;&gt;&#9;&lt;/span&gt;[WIP]" style="text;strokeColor=#B09500;fillColor=#e3c800;align=left;verticalAlign=middle;spacingLeft=4;spacingRight=4;overflow=hidden;points=[[0,0.5],[1,0.5]];portConstraint=eastwest;rotatable=0;whiteSpace=wrap;html=1;fontColor=#000000;" parent="KGbFr2W1UHOio2lkcihP-9" vertex="1">
                    <mxGeometry y="180" width="210" height="30" as="geometry"/>
                </mxCell>
                <mxCell id="KGbFr2W1UHOio2lkcihP-25" style="edgeStyle=orthogonalEdgeStyle;rounded=0;orthogonalLoop=1;jettySize=auto;html=1;entryX=0.5;entryY=1;entryDx=0;entryDy=0;" parent="1" source="KGbFr2W1UHOio2lkcihP-15" target="KGbFr2W1UHOio2lkcihP-9" edge="1">
                    <mxGeometry relative="1" as="geometry"/>
                </mxCell>
                <mxCell id="KGbFr2W1UHOio2lkcihP-15" value="User_DB(User)" style="swimlane;fontStyle=0;childLayout=stackLayout;horizontal=1;startSize=30;horizontalStack=0;resizeParent=1;resizeParentMax=0;resizeLast=0;collapsible=1;marginBottom=0;whiteSpace=wrap;html=1;fillColor=#e51400;fontColor=#ffffff;strokeColor=#B20000;" parent="1" vertex="1">
                    <mxGeometry x="60" y="350" width="210" height="270" as="geometry"/>
                </mxCell>
                <mxCell id="KGbFr2W1UHOio2lkcihP-21" value="class stored in the database only, handled only within the API" style="rounded=0;whiteSpace=wrap;html=1;" parent="KGbFr2W1UHOio2lkcihP-15" vertex="1">
                    <mxGeometry y="30" width="210" height="60" as="geometry"/>
                </mxCell>
                <mxCell id="KGbFr2W1UHOio2lkcihP-16" value="_id: str&lt;span style=&quot;white-space: pre;&quot;&gt;&#9;&lt;/span&gt;[unique]" style="text;strokeColor=none;fillColor=none;align=left;verticalAlign=middle;spacingLeft=4;spacingRight=4;overflow=hidden;points=[[0,0.5],[1,0.5]];portConstraint=eastwest;rotatable=0;whiteSpace=wrap;html=1;" parent="KGbFr2W1UHOio2lkcihP-15" vertex="1">
                    <mxGeometry y="90" width="210" height="30" as="geometry"/>
                </mxCell>
                <mxCell id="KGbFr2W1UHOio2lkcihP-17" value="username: str&lt;span style=&quot;white-space: pre;&quot;&gt;&#9;&lt;/span&gt;[unique]" style="text;strokeColor=none;fillColor=none;align=left;verticalAlign=middle;spacingLeft=4;spacingRight=4;overflow=hidden;points=[[0,0.5],[1,0.5]];portConstraint=eastwest;rotatable=0;whiteSpace=wrap;html=1;" parent="KGbFr2W1UHOio2lkcihP-15" vertex="1">
                    <mxGeometry y="120" width="210" height="30" as="geometry"/>
                </mxCell>
                <mxCell id="KGbFr2W1UHOio2lkcihP-18" value="full_name: str" style="text;strokeColor=none;fillColor=none;align=left;verticalAlign=middle;spacingLeft=4;spacingRight=4;overflow=hidden;points=[[0,0.5],[1,0.5]];portConstraint=eastwest;rotatable=0;whiteSpace=wrap;html=1;" parent="KGbFr2W1UHOio2lkcihP-15" vertex="1">
                    <mxGeometry y="150" width="210" height="30" as="geometry"/>
                </mxCell>
                <mxCell id="KGbFr2W1UHOio2lkcihP-19" value="profile_picture: str | None&lt;span style=&quot;white-space: pre;&quot;&gt;&#9;&lt;/span&gt;[WIP]" style="text;align=left;verticalAlign=middle;spacingLeft=4;spacingRight=4;overflow=hidden;points=[[0,0.5],[1,0.5]];portConstraint=eastwest;rotatable=0;whiteSpace=wrap;html=1;fillColor=#e3c800;strokeColor=#B09500;fontColor=#000000;" parent="KGbFr2W1UHOio2lkcihP-15" vertex="1">
                    <mxGeometry y="180" width="210" height="30" as="geometry"/>
                </mxCell>
                <mxCell id="KGbFr2W1UHOio2lkcihP-23" value="password: str&lt;span style=&quot;white-space: pre;&quot;&gt;&#9;&lt;/span&gt;[hash of user pwd]" style="text;strokeColor=#6F0000;fillColor=#a20025;align=left;verticalAlign=middle;spacingLeft=4;spacingRight=4;overflow=hidden;points=[[0,0.5],[1,0.5]];portConstraint=eastwest;rotatable=0;whiteSpace=wrap;html=1;fontColor=#ffffff;" parent="KGbFr2W1UHOio2lkcihP-15" vertex="1">
                    <mxGeometry y="210" width="210" height="30" as="geometry"/>
                </mxCell>
                <mxCell id="KGbFr2W1UHOio2lkcihP-98" value="update: bool" style="text;strokeColor=none;fillColor=none;align=left;verticalAlign=middle;spacingLeft=4;spacingRight=4;overflow=hidden;points=[[0,0.5],[1,0.5]];portConstraint=eastwest;rotatable=0;whiteSpace=wrap;html=1;" parent="KGbFr2W1UHOio2lkcihP-15" vertex="1">
                    <mxGeometry y="240" width="210" height="30" as="geometry"/>
                </mxCell>
                <mxCell id="KGbFr2W1UHOio2lkcihP-90" value="Project(pydantic.BaseModel)" style="swimlane;fontStyle=0;childLayout=stackLayout;horizontal=1;startSize=30;horizontalStack=0;resizeParent=1;resizeParentMax=0;resizeLast=0;collapsible=1;marginBottom=0;whiteSpace=wrap;html=1;fillColor=#60a917;strokeColor=#2D7600;fontColor=#ffffff;" parent="1" vertex="1">
                    <mxGeometry x="1710" y="65" width="270" height="240" as="geometry"/>
                </mxCell>
                <mxCell id="KGbFr2W1UHOio2lkcihP-91" value="class containing all project details" style="rounded=0;whiteSpace=wrap;html=1;" parent="KGbFr2W1UHOio2lkcihP-90" vertex="1">
                    <mxGeometry y="30" width="270" height="60" as="geometry"/>
                </mxCell>
                <mxCell id="KGbFr2W1UHOio2lkcihP-97" value="_id: str" style="text;strokeColor=none;fillColor=none;align=left;verticalAlign=middle;spacingLeft=4;spacingRight=4;overflow=hidden;points=[[0,0.5],[1,0.5]];portConstraint=eastwest;rotatable=0;whiteSpace=wrap;html=1;" parent="KGbFr2W1UHOio2lkcihP-90" vertex="1">
                    <mxGeometry y="90" width="270" height="30" as="geometry"/>
                </mxCell>
                <mxCell id="KGbFr2W1UHOio2lkcihP-92" value="name: str" style="text;strokeColor=none;fillColor=none;align=left;verticalAlign=middle;spacingLeft=4;spacingRight=4;overflow=hidden;points=[[0,0.5],[1,0.5]];portConstraint=eastwest;rotatable=0;whiteSpace=wrap;html=1;" parent="KGbFr2W1UHOio2lkcihP-90" vertex="1">
                    <mxGeometry y="120" width="270" height="30" as="geometry"/>
                </mxCell>
                <mxCell id="KGbFr2W1UHOio2lkcihP-93" value="description: str" style="text;strokeColor=none;fillColor=none;align=left;verticalAlign=middle;spacingLeft=4;spacingRight=4;overflow=hidden;points=[[0,0.5],[1,0.5]];portConstraint=eastwest;rotatable=0;whiteSpace=wrap;html=1;" parent="KGbFr2W1UHOio2lkcihP-90" vertex="1">
                    <mxGeometry y="150" width="270" height="30" as="geometry"/>
                </mxCell>
                <mxCell id="KGbFr2W1UHOio2lkcihP-95" value="tasks: list[Discrete_Task | Milestone_Task]" style="text;strokeColor=none;fillColor=none;align=left;verticalAlign=middle;spacingLeft=4;spacingRight=4;overflow=hidden;points=[[0,0.5],[1,0.5]];portConstraint=eastwest;rotatable=0;whiteSpace=wrap;html=1;" parent="KGbFr2W1UHOio2lkcihP-90" vertex="1">
                    <mxGeometry y="180" width="270" height="30" as="geometry"/>
                </mxCell>
                <mxCell id="KGbFr2W1UHOio2lkcihP-94" value="members: list[str]" style="text;strokeColor=none;fillColor=none;align=left;verticalAlign=middle;spacingLeft=4;spacingRight=4;overflow=hidden;points=[[0,0.5],[1,0.5]];portConstraint=eastwest;rotatable=0;whiteSpace=wrap;html=1;" parent="KGbFr2W1UHOio2lkcihP-90" vertex="1">
                    <mxGeometry y="210" width="270" height="30" as="geometry"/>
                </mxCell>
                <mxCell id="KGbFr2W1UHOio2lkcihP-99" value="Project_DB(Project)" style="swimlane;fontStyle=0;childLayout=stackLayout;horizontal=1;startSize=30;horizontalStack=0;resizeParent=1;resizeParentMax=0;resizeLast=0;collapsible=1;marginBottom=0;whiteSpace=wrap;html=1;fillColor=#fa6800;strokeColor=#C73500;fontColor=#000000;" parent="1" vertex="1">
                    <mxGeometry x="1720" y="395" width="270" height="270" as="geometry"/>
                </mxCell>
                <mxCell id="KGbFr2W1UHOio2lkcihP-100" value="project class containing extra data and handled only by the API and DB" style="rounded=0;whiteSpace=wrap;html=1;" parent="KGbFr2W1UHOio2lkcihP-99" vertex="1">
                    <mxGeometry y="30" width="270" height="60" as="geometry"/>
                </mxCell>
                <mxCell id="KGbFr2W1UHOio2lkcihP-101" value="_id: str" style="text;strokeColor=none;fillColor=none;align=left;verticalAlign=middle;spacingLeft=4;spacingRight=4;overflow=hidden;points=[[0,0.5],[1,0.5]];portConstraint=eastwest;rotatable=0;whiteSpace=wrap;html=1;" parent="KGbFr2W1UHOio2lkcihP-99" vertex="1">
                    <mxGeometry y="90" width="270" height="30" as="geometry"/>
                </mxCell>
                <mxCell id="KGbFr2W1UHOio2lkcihP-102" value="name: str" style="text;strokeColor=none;fillColor=none;align=left;verticalAlign=middle;spacingLeft=4;spacingRight=4;overflow=hidden;points=[[0,0.5],[1,0.5]];portConstraint=eastwest;rotatable=0;whiteSpace=wrap;html=1;" parent="KGbFr2W1UHOio2lkcihP-99" vertex="1">
                    <mxGeometry y="120" width="270" height="30" as="geometry"/>
                </mxCell>
                <mxCell id="KGbFr2W1UHOio2lkcihP-103" value="description: str" style="text;strokeColor=none;fillColor=none;align=left;verticalAlign=middle;spacingLeft=4;spacingRight=4;overflow=hidden;points=[[0,0.5],[1,0.5]];portConstraint=eastwest;rotatable=0;whiteSpace=wrap;html=1;" parent="KGbFr2W1UHOio2lkcihP-99" vertex="1">
                    <mxGeometry y="150" width="270" height="30" as="geometry"/>
                </mxCell>
                <mxCell id="KGbFr2W1UHOio2lkcihP-104" value="tasks: list[Discrete_Task | Milestone_Task]" style="text;strokeColor=none;fillColor=none;align=left;verticalAlign=middle;spacingLeft=4;spacingRight=4;overflow=hidden;points=[[0,0.5],[1,0.5]];portConstraint=eastwest;rotatable=0;whiteSpace=wrap;html=1;" parent="KGbFr2W1UHOio2lkcihP-99" vertex="1">
                    <mxGeometry y="180" width="270" height="30" as="geometry"/>
                </mxCell>
                <mxCell id="KGbFr2W1UHOio2lkcihP-105" value="members: list[str]" style="text;strokeColor=none;fillColor=none;align=left;verticalAlign=middle;spacingLeft=4;spacingRight=4;overflow=hidden;points=[[0,0.5],[1,0.5]];portConstraint=eastwest;rotatable=0;whiteSpace=wrap;html=1;" parent="KGbFr2W1UHOio2lkcihP-99" vertex="1">
                    <mxGeometry y="210" width="270" height="30" as="geometry"/>
                </mxCell>
                <mxCell id="KGbFr2W1UHOio2lkcihP-106" value="members_ids: list[str]" style="text;strokeColor=#C73500;fillColor=#fa6800;align=left;verticalAlign=middle;spacingLeft=4;spacingRight=4;overflow=hidden;points=[[0,0.5],[1,0.5]];portConstraint=eastwest;rotatable=0;whiteSpace=wrap;html=1;fontColor=#000000;" parent="KGbFr2W1UHOio2lkcihP-99" vertex="1">
                    <mxGeometry y="240" width="270" height="30" as="geometry"/>
                </mxCell>
                <mxCell id="KGbFr2W1UHOio2lkcihP-107" style="edgeStyle=orthogonalEdgeStyle;rounded=0;orthogonalLoop=1;jettySize=auto;html=1;entryX=0.48;entryY=1.074;entryDx=0;entryDy=0;entryPerimeter=0;" parent="1" source="KGbFr2W1UHOio2lkcihP-99" target="KGbFr2W1UHOio2lkcihP-94" edge="1">
                    <mxGeometry relative="1" as="geometry">
                        <Array as="points">
                            <mxPoint x="1835" y="325"/>
                            <mxPoint x="1840" y="325"/>
                        </Array>
                    </mxGeometry>
                </mxCell>
                <mxCell id="KGbFr2W1UHOio2lkcihP-115" value="" style="swimlane;startSize=0;" parent="1" vertex="1">
                    <mxGeometry x="-220" y="-430" width="540" height="390" as="geometry"/>
                </mxCell>
                <mxCell id="KGbFr2W1UHOio2lkcihP-110" value="" style="rounded=0;whiteSpace=wrap;html=1;fillColor=#60a917;fontColor=#ffffff;strokeColor=#2D7600;" parent="KGbFr2W1UHOio2lkcihP-115" vertex="1">
                    <mxGeometry x="40" y="40" width="40" height="40" as="geometry"/>
                </mxCell>
                <mxCell id="KGbFr2W1UHOio2lkcihP-111" value="" style="rounded=0;whiteSpace=wrap;html=1;fillColor=#1ba1e2;fontColor=#ffffff;strokeColor=#006EAF;" parent="KGbFr2W1UHOio2lkcihP-115" vertex="1">
                    <mxGeometry x="40" y="100" width="40" height="40" as="geometry"/>
                </mxCell>
                <mxCell id="KGbFr2W1UHOio2lkcihP-112" value="" style="rounded=0;whiteSpace=wrap;html=1;fillColor=#e3c800;fontColor=#000000;strokeColor=#B09500;" parent="KGbFr2W1UHOio2lkcihP-115" vertex="1">
                    <mxGeometry x="40" y="170" width="40" height="40" as="geometry"/>
                </mxCell>
                <mxCell id="KGbFr2W1UHOio2lkcihP-113" value="" style="rounded=0;whiteSpace=wrap;html=1;fillColor=#fa6800;fontColor=#000000;strokeColor=#C73500;" parent="KGbFr2W1UHOio2lkcihP-115" vertex="1">
                    <mxGeometry x="40" y="240" width="40" height="40" as="geometry"/>
                </mxCell>
                <mxCell id="KGbFr2W1UHOio2lkcihP-114" value="" style="rounded=0;whiteSpace=wrap;html=1;fillColor=#e51400;fontColor=#ffffff;strokeColor=#B20000;" parent="KGbFr2W1UHOio2lkcihP-115" vertex="1">
                    <mxGeometry x="40" y="320" width="40" height="40" as="geometry"/>
                </mxCell>
                <mxCell id="KGbFr2W1UHOio2lkcihP-116" value="&lt;font style=&quot;font-size: 20px;&quot;&gt;LEGEND&lt;/font&gt;" style="text;html=1;strokeColor=none;fillColor=none;align=center;verticalAlign=middle;whiteSpace=wrap;rounded=0;" parent="KGbFr2W1UHOio2lkcihP-115" vertex="1">
                    <mxGeometry x="225" y="10" width="90" height="30" as="geometry"/>
                </mxCell>
                <mxCell id="KGbFr2W1UHOio2lkcihP-117" value="concrete class, can be transmitted safely" style="text;html=1;strokeColor=none;fillColor=none;align=left;verticalAlign=middle;whiteSpace=wrap;rounded=0;" parent="KGbFr2W1UHOio2lkcihP-115" vertex="1">
                    <mxGeometry x="120" y="45" width="380" height="30" as="geometry"/>
                </mxCell>
                <mxCell id="KGbFr2W1UHOio2lkcihP-118" value="abstract class, not to be used, but inherited" style="text;html=1;strokeColor=none;fillColor=none;align=left;verticalAlign=middle;whiteSpace=wrap;rounded=0;" parent="KGbFr2W1UHOio2lkcihP-115" vertex="1">
                    <mxGeometry x="120" y="105" width="380" height="30" as="geometry"/>
                </mxCell>
                <mxCell id="KGbFr2W1UHOio2lkcihP-119" value="class/feature that's being worked on" style="text;html=1;strokeColor=none;fillColor=none;align=left;verticalAlign=middle;whiteSpace=wrap;rounded=0;" parent="KGbFr2W1UHOio2lkcihP-115" vertex="1">
                    <mxGeometry x="120" y="175" width="380" height="30" as="geometry"/>
                </mxCell>
                <mxCell id="KGbFr2W1UHOio2lkcihP-120" value="class/data with content that is not recommended to be transmitted unless used for something" style="text;html=1;strokeColor=none;fillColor=none;align=left;verticalAlign=middle;whiteSpace=wrap;rounded=0;" parent="KGbFr2W1UHOio2lkcihP-115" vertex="1">
                    <mxGeometry x="120" y="245" width="380" height="30" as="geometry"/>
                </mxCell>
                <mxCell id="KGbFr2W1UHOio2lkcihP-121" value="class/data with sensitive information, should not be transmitted outside of the server" style="text;html=1;strokeColor=none;fillColor=none;align=left;verticalAlign=middle;whiteSpace=wrap;rounded=0;" parent="KGbFr2W1UHOio2lkcihP-115" vertex="1">
                    <mxGeometry x="120" y="325" width="380" height="30" as="geometry"/>
                </mxCell>
            </root>
        </mxGraphModel>
    </diagram>
</mxfile>